<?xml version="1.0" encoding="utf-8"?>
<!-- Generator: Adobe Illustrator 24.0.0, SVG Export Plug-In . SVG Version: 6.00 Build 0)  -->
<svg version="1.1" id="Слой_1" xmlns="http://www.w3.org/2000/svg" xmlns:xlink="http://www.w3.org/1999/xlink" x="0px" y="0px"
	 viewBox="0 0 32 32" style="enable-background:new 0 0 32 32;" xml:space="preserve">
<style type="text/css">
	.st0{fill:#FFFFFF;}
</style>
<title>google-plus</title>
<path class="st0" d="M12.4,14.8V17H16c-0.1,0.9-1.1,2.7-3.6,2.7c-2.2,0-3.9-1.8-3.9-4s1.8-4,3.9-4c1.2,0,2.1,0.5,2.5,1l1.7-1.7
	c-1.1-1-2.5-1.7-4.3-1.7C8.8,9.4,6,12.2,6,15.8s2.8,6.4,6.4,6.4c3.7,0,6.1-2.6,6.1-6.2c0-0.4,0-0.7-0.1-1.1L12.4,14.8L12.4,14.8z"/>
<path class="st0" d="M26,14.7h-1.9v-1.9h-1.9v1.9h-1.9v1.9h1.9v1.9h1.9v-1.9H26V14.7z"/>
</svg>
