<?xml version="1.0" encoding="utf-8"?>
<!-- Generator: Adobe Illustrator 24.0.0, SVG Export Plug-In . SVG Version: 6.00 Build 0)  -->
<svg version="1.1" id="Слой_1" xmlns="http://www.w3.org/2000/svg" xmlns:xlink="http://www.w3.org/1999/xlink" x="0px" y="0px"
	 viewBox="0 0 32 32" style="enable-background:new 0 0 32 32;" xml:space="preserve">
<style type="text/css">
	.st0{fill:#FFFFFF;}
</style>
<title>pinterest2</title>
<path class="st0" d="M16,6C10.5,6,6,10.5,6,16s4.5,10,10,10s10-4.5,10-10S21.5,6,16,6z M16,24.7c-0.9,0-1.8-0.1-2.6-0.4
	c0.4-0.6,0.9-1.5,1.1-2.3c0.1-0.4,0.5-2.1,0.5-2.1c0.3,0.5,1.1,1,2,1c2.6,0,4.5-2.4,4.5-5.4c0-2.9-2.3-5-5.3-5
	c-3.7,0-5.7,2.5-5.7,5.2c0,1.3,0.7,2.9,1.8,3.4c0.2,0.1,0.3,0,0.3-0.1c0-0.1,0.2-0.7,0.2-1c0-0.1,0-0.2-0.1-0.3
	c-0.4-0.4-0.6-1.2-0.6-2c0-1.9,1.4-3.8,3.9-3.8c2.1,0,3.6,1.4,3.6,3.5c0,2.3-1.2,4-2.7,4c-0.9,0-1.5-0.7-1.3-1.6
	c0.2-1,0.7-2.1,0.7-2.9c0-0.7-0.4-1.2-1.1-1.2c-0.9,0-1.6,0.9-1.6,2.1c0,0.8,0.3,1.3,0.3,1.3s-0.9,3.6-1,4.3c-0.2,0.8-0.1,1.8,0,2.5
	c-3.2-1.3-5.5-4.4-5.5-8.1c0-4.8,3.9-8.7,8.7-8.7s8.7,3.9,8.7,8.7C24.7,20.8,20.8,24.7,16,24.7L16,24.7z"/>
</svg>
